<svg width="485" height="645" viewBox="0 0 485 645" fill="none" xmlns="http://www.w3.org/2000/svg">
<g clip-path="url(#clip0_204_3)">
<path d="M25 3.75H459.5C471.236 3.75 480.75 13.264 480.75 25V570C480.75 609.35 448.85 641.25 409.5 641.25H25C13.264 641.25 3.75 631.735 3.75 620V25C3.75 13.264 13.264 3.75 25 3.75Z" fill="#305D42" stroke="#1E3A29" stroke-width="7.5"/>
<path d="M281 587C286.523 587 291 582.523 291 577C291 571.477 286.523 567 281 567C275.477 567 271 571.477 271 577C271 582.523 275.477 587 281 587Z" fill="#414F43" stroke="#1E3A29" stroke-width="5"/>
<path d="M235 587C240.523 587 245 582.523 245 577C245 571.477 240.523 567 235 567C229.477 567 225 571.477 225 577C225 582.523 229.477 587 235 587Z" fill="#414F43" stroke="#1E3A29" stroke-width="5"/>
<path d="M52 29H434C446.427 29 456.5 39.0736 456.5 51.5V307C456.5 347.041 424.041 379.5 384 379.5H52C39.5736 379.5 29.5 369.427 29.5 357V51.5C29.5 39.0736 39.5736 29 52 29Z" fill="#414F43" stroke="#1E3A29" stroke-width="5"/>
<path d="M407.5 60H83C77.4772 60 73 64.4772 73 70V332.5C73 338.023 77.4772 342.5 83 342.5H407.5C413.023 342.5 417.5 338.023 417.5 332.5V70C417.5 64.4772 413.023 60 407.5 60Z" fill="#BEDC7F" stroke="#1E3A29" stroke-width="5"/>
<path d="M51.5 150.5C55.9183 150.5 59.5 146.918 59.5 142.5C59.5 138.082 55.9183 134.5 51.5 134.5C47.0817 134.5 43.5 138.082 43.5 142.5C43.5 146.918 47.0817 150.5 51.5 150.5Z" fill="#1E3A29" stroke="#2E3B2F"/>
<path d="M125.966 421C132.87 421 138.466 426.596 138.466 433.5V458.842H164.5C171.404 458.842 177 464.439 177 471.342V495.536C177 502.44 171.404 508.035 164.5 508.035H138.466V535C138.466 541.905 132.87 547.5 125.966 547.5H101.577C94.6735 547.5 89.077 541.905 89.077 535V508.035H62.5C55.5965 508.035 50 502.44 50 495.536V471.342C50 464.439 55.5965 458.842 62.5 458.842H89.077V433.5C89.077 426.596 94.6735 421 101.577 421H125.966Z" fill="#414F43"/>
<mask id="mask0_204_3" style="mask-type:luminance" maskUnits="userSpaceOnUse" x="50" y="421" width="127" height="127">
<path d="M125.966 421C132.87 421 138.466 426.596 138.466 433.5V458.842H164.5C171.404 458.842 177 464.439 177 471.342V495.536C177 502.44 171.404 508.035 164.5 508.035H138.466V535C138.466 541.905 132.87 547.5 125.966 547.5H101.577C94.6735 547.5 89.077 541.905 89.077 535V508.035H62.5C55.5965 508.035 50 502.44 50 495.536V471.342C50 464.439 55.5965 458.842 62.5 458.842H89.077V433.5C89.077 426.596 94.6735 421 101.577 421H125.966Z" fill="white"/>
</mask>
<g mask="url(#mask0_204_3)">
<path d="M138.466 458.842H132.466V464.842H138.466V458.842ZM138.466 508.035V502.035H132.466V508.035H138.466ZM89.077 508.035H95.077V502.035H89.077V508.035ZM89.077 458.842V464.842H95.077V458.842H89.077ZM125.966 421V427C129.556 427 132.466 429.91 132.466 433.5H138.466H144.466C144.466 423.283 136.183 415 125.966 415V421ZM138.466 433.5H132.466V458.842H138.466H144.466V433.5H138.466ZM138.466 458.842V464.842H164.5V458.842V452.842H138.466V458.842ZM164.5 458.842V464.842C168.09 464.842 171 467.752 171 471.342H177H183C183 461.125 174.717 452.842 164.5 452.842V458.842ZM177 471.342H171V495.536H177H183V471.342H177ZM177 495.536H171C171 499.126 168.09 502.035 164.5 502.035V508.035V514.035C174.717 514.035 183 505.755 183 495.536H177ZM164.5 508.035V502.035H138.466V508.035V514.035H164.5V508.035ZM138.466 508.035H132.466V535H138.466H144.466V508.035H138.466ZM138.466 535H132.466C132.466 538.59 129.556 541.5 125.966 541.5V547.5V553.5C136.183 553.5 144.466 545.215 144.466 535H138.466ZM125.966 547.5V541.5H101.577V547.5V553.5H125.966V547.5ZM101.577 547.5V541.5C97.9875 541.5 95.077 538.59 95.077 535H89.077H83.077C83.077 545.215 91.36 553.5 101.577 553.5V547.5ZM89.077 535H95.077V508.035H89.077H83.077V535H89.077ZM89.077 508.035V502.035H62.5V508.035V514.035H89.077V508.035ZM62.5 508.035V502.035C58.91 502.035 56 499.126 56 495.536H50H44C44 505.755 52.2825 514.035 62.5 514.035V508.035ZM50 495.536H56V471.342H50H44V495.536H50ZM50 471.342H56C56 467.752 58.91 464.842 62.5 464.842V458.842V452.842C52.2825 452.842 44 461.125 44 471.342H50ZM62.5 458.842V464.842H89.077V458.842V452.842H62.5V458.842ZM89.077 458.842H95.077V433.5H89.077H83.077V458.842H89.077ZM89.077 433.5H95.077C95.077 429.91 97.9875 427 101.577 427V421V415C91.36 415 83.077 423.283 83.077 433.5H89.077ZM101.577 421V427H125.966V421V415H101.577V421Z" fill="#1E3A29"/>
</g>
<path d="M113.5 497.5C121.232 497.5 127.5 491.232 127.5 483.5C127.5 475.768 121.232 469.5 113.5 469.5C105.768 469.5 99.5 475.768 99.5 483.5C99.5 491.232 105.768 497.5 113.5 497.5Z" fill="#1E3A29" stroke="#474747"/>
<path d="M110.221 439.613C111.727 436.791 115.773 436.791 117.279 439.613L123.818 451.867C125.24 454.531 123.309 457.75 120.289 457.75H107.212C104.192 457.75 102.261 454.531 103.683 451.867L110.221 439.613Z" fill="#1E3A29"/>
<path d="M157.387 479.221C160.209 480.727 160.209 484.773 157.387 486.279L145.133 492.818C142.468 494.24 139.25 492.309 139.25 489.289V476.212C139.25 473.192 142.468 471.261 145.133 472.683L157.387 479.221Z" fill="#1E3A29"/>
<path d="M69.6135 486.279C66.791 484.773 66.791 480.727 69.6135 479.221L81.867 472.683C84.5315 471.261 87.75 473.192 87.75 476.212V489.289C87.75 492.309 84.5315 494.24 81.867 492.818L69.6135 486.279Z" fill="#1E3A29"/>
<path d="M117.279 527.385C115.773 530.21 111.727 530.21 110.221 527.385L103.683 515.135C102.261 512.47 104.192 509.25 107.212 509.25H120.289C123.309 509.25 125.24 512.47 123.818 515.135L117.279 527.385Z" fill="#1E3A29"/>
<path d="M376.5 526.5C376.5 514.074 366.426 504 354 504C341.574 504 331.5 514.074 331.5 526.5C331.5 538.926 341.574 549 354 549C366.426 549 376.5 538.926 376.5 526.5Z" fill="#414F43" stroke="#1E3A29" stroke-width="5"/>
<path d="M334.5 485.5C334.5 473.074 324.426 463 312 463C299.574 463 289.5 473.074 289.5 485.5C289.5 497.926 299.574 508 312 508C324.426 508 334.5 497.926 334.5 485.5Z" fill="#414F43" stroke="#1E3A29" stroke-width="5"/>
<path d="M420.5 485.5C420.5 473.074 410.426 463 398 463C385.574 463 375.5 473.074 375.5 485.5C375.5 497.926 385.574 508 398 508C410.426 508 420.5 497.926 420.5 485.5Z" fill="#414F43" stroke="#1E3A29" stroke-width="5"/>
<path d="M376.5 443.5C376.5 431.074 366.426 421 354 421C341.574 421 331.5 431.074 331.5 443.5C331.5 455.926 341.574 466 354 466C366.426 466 376.5 455.926 376.5 443.5Z" fill="#414F43" stroke="#1E3A29" stroke-width="5"/>
<path d="M345.5 452.5V447.5H348V445H350.5V442.5H348V440H345.5V435H350.5V440H353V442.5H355.5V440H358V435H363V440H360.5V442.5H358V445H360.5V447.5H363V452.5H358V447.5H355.5V445H353V447.5H350.5V452.5H345.5Z" fill="#1E3A29"/>
<path d="M309.5 495V487.5H307V485H304.5V477.5H309.5V485H314.5V477.5H319.5V485H317V487.5H314.5V495H309.5Z" fill="#1E3A29"/>
<path d="M345.5 535.5V518H360.5V520.5H363V525.5H360.5V528H363V533H360.5V535.5H345.5ZM350.5 525.5H358V520.5H350.5V525.5ZM350.5 533H358V528H350.5V533Z" fill="#1E3A29"/>
<path d="M390 493V480.5H392.5V478H395V475.5H402.5V478H405V480.5H407.5V493H402.5V488H395V493H390ZM395 485.5H402.5V480.5H400V478H397.5V480.5H395V485.5Z" fill="#1E3A29"/>
<path d="M220 606.5V605H227.5V603.5H221.5V602H220V600.5H221.5V599H229V600.5H223V602H229V603.5H230.5V605H229V606.5H220ZM236.5 606.5V600.5H233.5V599H236.5V596H239.5V599H242.5V600.5H239.5V606.5H236.5ZM248.5 600.5H250V602H248.5V606.5H245.5V599H248.5V600.5ZM254.5 599V600.5H250V599H254.5Z" fill="#112318"/>
<path d="M267.5 606.5V605H275V603.5H269V602H267.5V600.5H269V599H276.5V600.5H270.5V602H276.5V603.5H278V605H276.5V606.5H267.5ZM281 606.5V605H279.5V600.5H281V599H288.5V600.5H290V603.5H282.5V605H288.5V606.5H281ZM282.5 602H287V600.5H282.5V602ZM293 606.5V605H296V597.5H294.5V596H299V605H302V606.5H293Z" fill="#112318"/>
<path d="M79.5 368.125V355H90.75V356.875H92.625V362.5H90.75V364.375H83.25V368.125H79.5ZM83.25 362.5H88.875V356.875H83.25V362.5ZM96.375 368.125V366.25H100.125V356.875H96.375V355H107.625V356.875H103.875V366.25H107.625V368.125H96.375ZM109.5 368.125V364.375H111.375V362.5H113.25V360.625H111.375V358.75H109.5V355H113.25V358.75H115.125V360.625H117V358.75H118.875V355H122.625V358.75H120.75V360.625H118.875V362.5H120.75V364.375H122.625V368.125H118.875V364.375H117V362.5H115.125V364.375H113.25V368.125H109.5ZM124.5 368.125V355H137.625V356.875H128.25V360.625H135.75V362.5H128.25V366.25H137.625V368.125H124.5ZM141.375 368.125V355H145.125V366.25H152.625V368.125H141.375ZM154.5 368.125V355H165.75V356.875H167.625V362.5H165.75V364.375H158.25V368.125H154.5ZM158.25 362.5H163.875V356.875H158.25V362.5ZM169.5 368.125V355H182.625V356.875H173.25V360.625H180.75V362.5H173.25V366.25H182.625V368.125H169.5ZM190.125 368.125V356.875H186.375V355H197.625V356.875H193.875V368.125H190.125ZM216.375 368.125V366.25H214.5V364.375H218.25V366.25H223.875V362.5H218.25V360.625H220.125V358.75H222V356.875H216.375V355H227.625V356.875H225.75V358.75H223.875V360.625H225.75V362.5H227.625V366.25H225.75V368.125H216.375ZM233.25 368.125V366.25H231.375V364.375H229.5V358.75H231.375V356.875H233.25V355H238.875V356.875H240.75V358.75H242.625V364.375H240.75V366.25H238.875V368.125H233.25ZM235.125 366.25H238.875V358.75H237V356.875H233.25V364.375H235.125V366.25ZM248.25 368.125V366.25H246.375V364.375H244.5V358.75H246.375V356.875H248.25V355H253.875V356.875H255.75V358.75H257.625V364.375H255.75V366.25H253.875V368.125H248.25ZM250.125 366.25H253.875V358.75H252V356.875H248.25V364.375H250.125V366.25ZM263.25 368.125V366.25H261.375V364.375H259.5V358.75H261.375V356.875H263.25V355H268.875V356.875H270.75V358.75H272.625V364.375H270.75V366.25H268.875V368.125H263.25ZM265.125 366.25H268.875V358.75H267V356.875H263.25V364.375H265.125V366.25Z" fill="#112318"/>
</g>
<defs>
<clipPath id="clip0_204_3">
<rect width="484.5" height="645" fill="white"/>
</clipPath>
</defs>
</svg>
